/* XPM */
static const char * Platform_Channel_xpm[] = {
"96 32 118 2",
"  	c None",
". 	c #19B7EA",
"+ 	c #19B7E9",
"@ 	c #19B5E9",
"# 	c #19B6E9",
"$ 	c #18B6E9",
"% 	c #18B7EA",
"& 	c #1AB7EA",
"* 	c #19B6EA",
"= 	c #3DC2ED",
"- 	c #61CDF0",
"; 	c #48C5EE",
"> 	c #25BAEB",
", 	c #5DCCF0",
"' 	c #57CAEF",
") 	c #4FC7EE",
"! 	c #60CDF0",
"~ 	c #32BEEC",
"{ 	c #3AC1EC",
"] 	c #4BC6EE",
"^ 	c #19B5EA",
"/ 	c #92DCF4",
"( 	c #FAFDFE",
"_ 	c #AEE5F7",
": 	c #1FB8EA",
"< 	c #5BCBEF",
"[ 	c #F4FBFD",
"} 	c #E2F6FC",
"| 	c #3CC1ED",
"1 	c #27BBEB",
"2 	c #C3ECF9",
"3 	c #7AD5F2",
"4 	c #8CDAF4",
"5 	c #B8E8F8",
"6 	c #22B9EA",
"7 	c #18B6EA",
"8 	c #9BDFF5",
"9 	c #FFFFFF",
"0 	c #B9E8F8",
"a 	c #5ECCF0",
"b 	c #F9FDFE",
"c 	c #E8F7FC",
"d 	c #CDEFFA",
"e 	c #7FD6F3",
"f 	c #94DDF5",
"g 	c #63CEF0",
"h 	c #A5E2F6",
"i 	c #A7E3F6",
"j 	c #73D3F2",
"k 	c #3FC2ED",
"l 	c #8FDBF4",
"m 	c #2ABCEB",
"n 	c #80D7F3",
"o 	c #A2E1F6",
"p 	c #53C9EF",
"q 	c #5FCCF0",
"r 	c #A4E2F6",
"s 	c #79D4F2",
"t 	c #1BB7EA",
"u 	c #45C4ED",
"v 	c #6FD1F1",
"w 	c #51C8EF",
"x 	c #6AD0F1",
"y 	c #6FD2F1",
"z 	c #63CDF0",
"A 	c #1CB7EA",
"B 	c #5ACBEF",
"C 	c #6DD1F1",
"D 	c #39C0EC",
"E 	c #42C3ED",
"F 	c #6ED1F1",
"G 	c #55C9EF",
"H 	c #95DDF5",
"I 	c #FCFEFE",
"J 	c #B1E6F7",
"K 	c #5CCBF0",
"L 	c #F7FCFE",
"M 	c #E5F7FC",
"N 	c #C8EDF9",
"O 	c #7CD5F2",
"P 	c #8EDBF4",
"Q 	c #BBE9F8",
"R 	c #99DFF5",
"S 	c #B7E8F8",
"T 	c #7ED6F3",
"U 	c #93DDF5",
"V 	c #97DEF5",
"W 	c #8DDBF4",
"X 	c #98DEF5",
"Y 	c #82D7F3",
"Z 	c #26BBEB",
"` 	c #74D3F2",
" .	c #92DCF5",
"..	c #4CC6EE",
"+.	c #56CAEF",
"@.	c #43C4ED",
"#.	c #6BD0F1",
"$.	c #6CD0F1",
"%.	c #29BBEB",
"&.	c #67CFF0",
"*.	c #38C0EC",
"=.	c #40C2ED",
"-.	c #52C8EF",
";.	c #5BCBF0",
">.	c #F6FCFE",
",.	c #E5F6FC",
"'.	c #C7EDF9",
").	c #7BD5F2",
"!.	c #5CCBEF",
"~.	c #9ADFF5",
"{.	c #84D8F3",
"].	c #76D4F2",
"^.	c #4DC7EE",
"/.	c #58CAEF",
"(.	c #96DEF5",
"_.	c #70D2F1",
":.	c #18B5E9",
"<.	c #18B7EB",
"                                                                                                                                                                                                ",
"                                                                                                                                                                                                ",
"                                                                                                                                                                                                ",
"                                                                                                                                                                                                ",
"                . + @ @ @ @ # # # # # # + . + # $ +                                                                                                                                             ",
"          % + # & & & & & & & & & & & & & & & & & & # * +                                                                                                                                       ",
"        % & & & & & & & & & & & & & & & & & & & & & & & & #                                                                                                                                     ",
"      % & & & & & & & & & & & & & & & & & & & & & & & & & & *                                                                                                                                   ",
"      # & & & & & & & & & & & & & & & & & & & & & & & & & & #                                                                                                                                   ",
"    $ & & & & = - - ; & > , - ' & & ) - ! ~ & { ! - ] & & & & #                                                                                                                                 ",
"    ^ & & & & / ( ( _ : < [ ( } | 1 2 ( ( 3 & 4 ( ( 5 6 & & & @                                                                                                                                 ",
"    7 & & & & 8 9 9 0 : a b 9 c | 1 d 9 9 e & f 9 9 2 6 & & & #                                                                                                                                 ",
"    * & & & & g h i j & k 8 i l m : n i o p & q r i s t & & & *                                                                                                                                 ",
"    . & & & & & t t & & & t t t & & t t t & & & t t & & & & & .                                                                                                                                 ",
"    7 & & & & u v v w & m x y z A & B y C D & E F v G & & & & #                                                                                                                                 ",
"    # & & & & H I I J : K L I M | 1 N I I O & P I I Q 6 & & & @                                                                                                                                 ",
"    # & & & & R 9 9 S : , b 9 c | 1 d 9 9 T & U 9 9 2 6 & & & @                                                                                                                                 ",
"    $ & & & & B f V x & D W X Y Z A ` V  ...& +.f V v & & & & *                                                                                                                                 ",
"    # & & & & & & & & & & & & & & & & & & & & & & & & & & & & $                                                                                                                                 ",
"    # & & & & @.#.$.) & %.&.$.! A & ' $.x *.& =.#.$.-.& & & & *                                                                                                                                 ",
"    . & & & & f I I J : ;.>.I ,.| 1 '.I I ).& P I I Q 6 & & & .                                                                                                                                 ",
"    # & & & & R 9 9 5 : , b 9 c | 1 d 9 9 e & U 9 9 2 6 & & & #                                                                                                                                 ",
"    $ & & & & !.V R #.& { l ~.{.1 A ].~.H ^.& /.(.~._.& & & & %                                                                                                                                 ",
"      . & & & & & & & & & & & & & & & & & & & & & & & & & & #                                                                                                                                   ",
"      * & & & & & & & & & & & & & & & & & & & & & & & & & & *                                                                                                                                   ",
"      # # & & & & & & & & & & & & & & & & & & & & & & & & & :.                                                                                                                                  ",
"        7 # # & & & & & & & & & & & & & & & & & & & & & # <.                                                                                                                                    ",
"              :.7 . * # . # # # # # # # * . . + $ + .                                                                                                                                           ",
"                                                                                                                                                                                                ",
"                                                                                                                                                                                                ",
"                                                                                                                                                                                                ",
"                                                                                                                                                                                                "};
